<?xml version="1.0" standalone="no"?>
<!DOCTYPE svg PUBLIC "-//W3C//DTD SVG 20010904//EN"
 "http://www.w3.org/TR/2001/REC-SVG-20010904/DTD/svg10.dtd">
<svg version="1.0" xmlns="http://www.w3.org/2000/svg"
 width="1042.000000pt" height="1009.000000pt" viewBox="0 0 1042.000000 1009.000000"
 preserveAspectRatio="xMidYMid meet">

<g transform="translate(0.000000,1009.000000) scale(0.100000,-0.100000)"
fill="#000000" stroke="none">
<path d="M7528 10079 c-572 -41 -1111 -244 -1523 -574 -237 -190 -474 -481
-614 -754 -345 -675 -343 -1565 6 -2231 303 -579 829 -1004 1493 -1203 547
-165 1223 -165 1770 0 741 222 1306 722 1584 1399 130 318 192 720 167 1088
-36 523 -200 955 -511 1345 -382 478 -982 808 -1650 905 -225 33 -487 42 -722
25z m513 -1302 c400 -104 691 -443 764 -887 20 -124 20 -376 0 -500 -51 -312
-219 -586 -458 -749 -76 -52 -224 -117 -322 -142 -76 -20 -115 -23 -250 -23
-197 0 -287 20 -450 99 -321 156 -530 460 -584 850 -16 115 -14 356 5 466 79
460 386 806 794 893 113 24 125 25 270 21 103 -2 157 -9 231 -28z"/>
<path d="M200 7640 l0 -2340 790 0 790 0 0 590 0 590 213 0 212 0 399 -590
398 -590 845 0 844 0 -24 33 c-61 82 -959 1409 -956 1411 2 2 43 27 90 54 414
244 676 618 760 1088 29 161 32 468 5 628 -61 373 -217 672 -477 920 -287 273
-680 444 -1200 523 -102 15 -247 17 -1401 20 l-1288 4 0 -2341z m2405 1097
c258 -74 388 -249 388 -522 0 -268 -121 -438 -366 -514 -80 -24 -89 -25 -464
-29 l-383 -3 0 546 0 546 383 -3 c323 -4 391 -7 442 -21z"/>
<path d="M28 4648 c11 -18 408 -683 881 -1478 l861 -1444 0 -863 0 -863 790 0
790 0 0 846 0 847 862 1456 c474 801 872 1473 885 1494 l23 37 -764 0 -764 0
-478 -805 c-264 -443 -481 -805 -484 -805 -3 0 -219 363 -480 805 l-474 805
-834 0 -834 0 20 -32z"/>
<path d="M5450 2340 l0 -2340 1408 0 c1401 0 1559 3 1802 36 550 74 963 272
1191 573 214 283 274 724 148 1092 -104 303 -358 557 -712 709 l-88 37 58 33
c319 180 520 457 573 792 18 113 8 361 -19 462 -116 435 -497 744 -1071 870
-334 73 -409 76 -1947 76 l-1343 0 0 -2340z m2522 1212 c189 -52 268 -137 276
-297 2 -44 -1 -99 -7 -122 -18 -66 -70 -134 -130 -170 -120 -72 -219 -83 -718
-83 l-393 0 0 343 c0 189 3 347 8 351 4 4 205 6 447 4 409 -4 445 -6 517 -26z
m206 -1735 c127 -34 215 -95 260 -181 25 -46 27 -61 27 -161 0 -91 -4 -118
-21 -156 -47 -101 -134 -161 -282 -196 -69 -16 -131 -18 -617 -18 l-540 0 -3
368 -2 368 557 -4 c479 -3 567 -6 621 -20z"/>
</g>
</svg>
